<svg width="76" height="73" viewBox="0 0 76 73" fill="none" xmlns="http://www.w3.org/2000/svg">
<g id="Group">
<path id="Vector" d="M17.8125 0H58.1875C68.0251 0 76 7.66013 76 17.1094V55.8906C76 65.3399 68.0251 73 58.1875 73H17.8125C7.97493 73 0 65.3399 0 55.8906V17.1094C0 7.66013 7.97493 0 17.8125 0Z" fill="#00979C"/>
<path id="Vector_2" fill-rule="evenodd" clip-rule="evenodd" d="M70.3594 38.9272V34.2458C70.2573 34.1971 70.2573 34.0996 70.2573 34.002C68.7245 27.614 64.5347 23.7615 57.8924 22.2496C57.3304 22.1033 56.7174 22.1521 56.1551 21.957H52.8853C52.8343 22.0546 52.6808 22.0058 52.5786 22.0058C49.3086 22.3471 46.3452 23.4686 43.7395 25.4194C41.4913 27.0285 39.7539 29.0768 38.1701 31.2711C37.9659 31.5637 37.8634 31.5637 37.6592 31.2711C36.7395 30.0033 35.7687 28.7842 34.6447 27.6627C31.9366 24.883 28.6665 22.9323 24.6813 22.2496C24.1193 22.1033 23.4552 22.1521 22.8929 21.957H19.7253C19.6742 22.0546 19.5718 22.0058 19.4697 22.0058C18.4989 22.1033 17.5792 22.2984 16.6594 22.5422C9.81291 24.4442 4.95901 30.4421 5.3678 37.2206C5.67448 42.9263 8.68894 47.0226 13.9516 49.6069C16.5573 50.9725 19.4186 51.3139 22.382 51.2651C26.2651 51.2163 29.6373 49.9483 32.5497 47.5102C34.5937 45.8032 36.1775 43.7552 37.6592 41.6094C37.8634 41.3169 37.9659 41.3656 38.1701 41.6582C39.0898 42.975 40.0606 44.2916 41.1846 45.5594C43.1772 47.7052 45.4765 49.4606 48.3378 50.3874C51.8635 51.5577 55.4399 51.6064 59.0164 50.68C64.177 49.2656 67.7023 46.1446 69.6439 41.3656C69.9506 40.5854 70.1041 39.7077 70.3594 38.9272ZM54.1114 46.0958C51.1991 46.1933 48.6955 45.2668 46.5497 43.3651C44.3525 41.4144 42.7687 38.976 41.1846 36.5867C41.1335 36.4404 41.1335 36.3429 41.2356 36.1966C42.5642 34.1971 43.9437 32.1978 45.7832 30.5397C49.3086 27.3211 53.4473 26.2483 58.0967 27.6624C61.9287 28.8818 64.3815 31.4661 64.9435 35.3674C65.5055 39.0248 64.0238 41.9508 60.9582 44.1453C58.9143 45.5594 56.615 46.1446 54.1114 46.0958ZM21.7179 46.0958C20.5939 46.0958 19.4697 46.047 18.3968 45.7545C14.3604 44.5842 11.7034 42.1946 10.9369 38.1958C10.1706 34.2458 11.7545 31.076 15.2288 28.833C19.0609 26.2971 24.6302 26.5409 28.5134 29.3206C31.119 31.1736 32.8563 33.6607 34.5937 36.2454C34.6958 36.3916 34.6447 36.4892 34.5937 36.6355C33.2141 38.7322 31.8345 40.8292 30.0461 42.6334C27.7982 44.9255 25.0901 46.2421 21.7179 46.0958Z" fill="white"/>
<path id="Vector_3" fill-rule="evenodd" clip-rule="evenodd" d="M54.1624 35.0261C52.5275 35.0261 50.8412 35.0748 49.2064 35.0261C48.7976 35.0261 48.7465 35.1236 48.7465 35.5137C48.7976 35.9513 48.7976 36.393 48.7465 36.8305C48.6954 37.2206 48.7976 37.3182 49.2574 37.3182H55.7976C56.9215 37.3182 58.0455 37.2694 59.1698 37.3182C59.5275 37.3182 59.6296 37.2206 59.6296 36.8305C59.5786 36.3917 59.5786 35.9528 59.6296 35.4649C59.6296 35.1236 59.5275 35.0261 59.1695 35.0261C57.5346 35.0748 55.8486 35.0261 54.1624 35.0261ZM21.9731 31.905C21.5646 31.905 21.1558 31.9538 20.7981 31.905C20.5425 31.905 20.4404 32.0026 20.4404 32.2464C20.4914 32.9293 20.4404 33.612 20.4914 34.2946C20.4914 34.636 20.3893 34.7335 20.0316 34.7335C19.3674 34.6847 18.652 34.7335 17.9368 34.6847C17.6301 34.6847 17.528 34.7335 17.528 35.0748V37.3182C17.528 37.562 17.6301 37.6595 17.8857 37.6595C18.6009 37.6107 19.3164 37.6595 20.0826 37.6107C20.3893 37.6107 20.4914 37.7082 20.4914 38.0008C20.4404 38.6835 20.4914 39.3661 20.4404 40.0491C20.4404 40.3417 20.5425 40.4879 20.8492 40.4879C21.6147 40.4392 22.3829 40.4392 23.1484 40.4879C23.4548 40.4879 23.5572 40.3904 23.5572 40.0979C23.5062 39.3661 23.5572 38.6835 23.5062 37.9521C23.5062 37.7082 23.6083 37.6107 23.8636 37.6107C24.5791 37.6595 25.2943 37.6107 26.0097 37.6595C26.4185 37.6595 26.4696 37.5132 26.4696 37.2206C26.4696 36.538 26.4185 35.855 26.4696 35.1723C26.5206 34.7823 26.3161 34.6847 25.9587 34.6847C25.2432 34.7335 24.5791 34.6847 23.8636 34.7335C23.6083 34.7335 23.5062 34.636 23.5062 34.3922C23.5572 33.7095 23.5062 32.9781 23.5572 32.2954C23.5572 32.0026 23.4548 31.905 23.1484 31.905C22.7397 31.9538 22.3819 31.905 21.9731 31.905Z" fill="white"/>
</g>
</svg>
