<svg width="93" height="93" viewBox="0 0 93 93" fill="none" xmlns="http://www.w3.org/2000/svg">
<g id="cib:cisco" clip-path="url(#clip0_247_13)">
<path id="Vector" d="M63.2865 70.4156V66.1027L63.1964 66.1492C62.2269 66.6223 61.1703 66.8904 60.0925 66.9368C58.9745 67.025 57.8635 66.6958 56.9741 66.0126C56.3364 65.5244 55.8613 64.8548 55.6111 64.0916C55.3363 63.2544 55.3051 62.3564 55.521 61.5021C55.7186 60.6244 56.2011 59.8514 56.8986 59.2934C57.5243 58.7849 58.2789 58.46 59.0782 58.3547C60.4971 58.2023 61.9294 58.4712 63.1964 59.1277L63.2865 59.1742V54.8439L63.0889 54.7974C61.8236 54.3915 60.4955 54.2172 59.1683 54.283C57.9564 54.3121 56.762 54.5853 55.6721 55.0851C54.56 55.5889 53.5808 56.3452 52.8124 57.2939C51.6332 58.7769 50.9776 60.6083 50.9476 62.5028C50.9177 64.3972 51.5151 66.2484 52.6467 67.768C53.7976 69.2357 55.4018 70.2819 57.2037 70.7033C59.1078 71.1639 61.1016 71.0956 62.9697 70.5057L63.2865 70.4156ZM20.678 70.4156V66.1027L20.5879 66.1492C19.6184 66.6223 18.5618 66.8904 17.484 66.9368C16.366 67.025 15.255 66.6958 14.3656 66.0126C13.7318 65.5207 13.2576 64.8523 13.0026 64.0916C12.7278 63.2544 12.6966 62.3564 12.9125 61.5021C13.1101 60.6244 13.5925 59.8514 14.29 59.2934C14.9158 58.7849 15.6703 58.46 16.4697 58.3547C17.8886 58.2023 19.3209 58.4712 20.5879 59.1277L20.678 59.1742V54.8439L20.4803 54.7974C19.2151 54.3915 17.887 54.2172 16.5598 54.283C15.3479 54.3121 14.168 54.5853 13.0636 55.0851C11.9542 55.5934 10.976 56.349 10.2038 57.2939C9.027 58.778 8.37286 60.609 8.34291 62.5028C8.31296 64.3966 8.90887 66.2474 10.0382 67.768C11.1745 69.2357 12.7933 70.2819 14.5952 70.7033C16.4993 71.1639 18.4931 71.0956 20.3612 70.5057L20.678 70.4156ZM35.8893 66.8438L35.8747 70.5522L36.1334 70.5987C36.9966 70.7498 37.8452 70.8573 38.7054 70.9329C39.4611 70.9939 40.2341 71.0085 40.9897 70.9794C41.7163 70.9174 42.4274 70.7808 43.1229 70.5696C43.9396 70.3429 44.6807 69.9332 45.3317 69.3897C45.9071 68.8898 46.3605 68.2533 46.6192 67.5442C47.0871 66.3323 47.0725 65.0158 46.5901 63.8213C46.3495 63.1972 45.9533 62.645 45.4392 62.2171C44.9509 61.772 44.3732 61.4361 43.7449 61.2318L40.9433 60.1885C40.6098 60.0488 40.3403 59.7897 40.1876 59.4619C40.1248 59.3283 40.0946 59.1817 40.0997 59.0341C40.1047 58.8865 40.1448 58.7423 40.2167 58.6133C40.3559 58.374 40.5606 58.1793 40.8067 58.0524C41.1244 57.9052 41.4577 57.8092 41.8064 57.7647C42.3964 57.6891 43.0009 57.6891 43.5938 57.7938C44.2874 57.8713 44.9733 57.9923 45.6514 58.157L45.8025 58.1861V54.7654L45.5293 54.7044C44.8348 54.5466 44.1324 54.4253 43.4252 54.3411C42.5067 54.2136 41.5753 54.2087 40.6555 54.3266C39.4959 54.4388 38.3927 54.8805 37.4761 55.5995C36.8605 56.0907 36.3895 56.7395 36.1131 57.477C35.7201 58.6043 35.7201 59.8313 36.1131 60.9587C36.3281 61.538 36.6565 62.032 37.0983 62.4408C37.4761 62.8032 37.9004 63.1064 38.3712 63.3505C38.9757 63.6847 39.6267 63.9259 40.2923 64.1061C40.5044 64.1817 40.7311 64.2427 40.9433 64.3183L41.2775 64.4403L41.3676 64.4868C41.6958 64.5957 41.9957 64.7764 42.2453 65.0158C42.4227 65.1771 42.5575 65.3797 42.6376 65.6057C42.6989 65.8085 42.6989 66.0249 42.6376 66.2277C42.5336 66.5581 42.3054 66.8353 42.0011 67.0008C41.6669 67.1664 41.3036 67.2885 40.9258 67.335C40.38 67.4204 39.8264 67.4458 39.2751 67.4105C38.1703 67.3326 37.0756 67.1497 36.0055 66.8642L35.8893 66.8438ZM26.2928 70.6888H30.3645V54.5533H26.2928V70.6888ZM73.4119 59.3195C74.2861 58.6194 75.4014 58.2928 76.5151 58.4107C77.6289 58.5286 78.6511 59.0815 79.3593 59.9491C80.0676 60.8167 80.4047 61.9289 80.2972 63.0437C80.1898 64.1585 79.6465 65.1858 78.7855 65.9022L78.71 65.9487C74.3041 69.3403 69.1426 62.8593 73.4119 59.3195ZM67.5093 62.621C67.5283 63.8826 67.8278 65.1242 68.3861 66.2557C68.9444 67.3872 69.7475 68.3802 70.7372 69.1629C71.7268 69.9456 72.8782 70.4982 74.1079 70.7807C75.3376 71.0632 76.6148 71.0686 77.8468 70.7963C85.3246 69.3723 87.0945 59.459 80.5554 55.5385C74.9231 52.0568 67.643 56.0064 67.5064 62.6239L67.5093 62.621ZM88.9748 41.5653C89.0795 44.1373 92.8954 44.1373 93 41.5653V37.1013C92.8954 34.5292 89.0795 34.5292 88.9748 37.1013V41.5653ZM77.9543 41.5653C78.1374 44.0617 81.7993 44.0617 81.9795 41.5653V31.5445C81.8284 29.0161 78.12 29.0161 77.9543 31.5445V41.5653ZM66.7682 45.6078C66.9658 48.1043 70.6132 48.1043 70.7933 45.6078V23.9156C70.6887 21.3436 66.8873 21.3436 66.7682 23.9156V45.6078ZM55.7797 41.5653C55.9308 44.0937 59.6392 44.0937 59.8048 41.5653V31.5445C59.6827 28.9725 55.8843 28.9725 55.7797 31.5445V41.5653ZM44.5325 41.5653C44.7737 44.0036 48.3309 44.0036 48.5576 41.5653V37.1013C48.453 34.5292 44.6516 34.5292 44.5325 37.1013V41.5653ZM33.4219 41.5653C33.5265 44.1373 37.3279 44.1373 37.447 41.5653V31.5445C37.325 28.9725 33.5265 28.9725 33.4219 31.5445V41.5653ZM22.2357 45.6078C22.3403 48.1799 26.1417 48.1799 26.2609 45.6078V23.9156C26.1388 21.3436 22.3403 21.3436 22.2357 23.9156V45.6078ZM11.1397 41.5653C11.3663 44.0327 14.9556 44.0327 15.1648 41.5653V31.5445C15.0602 28.9725 11.2588 28.9725 11.1542 31.5445V41.5653H11.1397ZM0 41.5653C0.183094 44.0617 3.83044 44.0617 4.02516 41.5653V37.1013C3.92053 34.5292 0.104625 34.5292 0 37.1013V41.5653Z" fill="#1060FF"/>
</g>
<defs>
<clipPath id="clip0_247_13">
<rect width="93" height="93" fill="white"/>
</clipPath>
</defs>
</svg>
