<svg width="58" height="87" viewBox="0 0 58 87" fill="none" xmlns="http://www.w3.org/2000/svg">
<g id="logos:figma" clip-path="url(#clip0_65_160)">
<path id="Vector" d="M14.4513 87C22.4285 87 28.9027 80.504 28.9027 72.5V58H14.4513C6.4742 58 0 64.496 0 72.5C0 80.504 6.4742 87 14.4513 87Z" fill="#0ACF83"/>
<path id="Vector_2" d="M0 43.5C0 35.496 6.4742 29 14.4513 29H28.9027V58H14.4513C6.4742 58 0 51.504 0 43.5Z" fill="#A259FF"/>
<path id="Vector_3" d="M0 14.5C0 6.496 6.4742 0 14.4513 0H28.9027V29H14.4513C6.4742 29 0 22.504 0 14.5Z" fill="#F24E1E"/>
<path id="Vector_4" d="M28.9026 0H43.3539C51.3311 0 57.8053 6.496 57.8053 14.5C57.8053 22.504 51.3311 29 43.3539 29H28.9026V0Z" fill="#FF7262"/>
<path id="Vector_5" d="M57.8053 43.5C57.8053 51.504 51.3311 58 43.3539 58C35.3768 58 28.9026 51.504 28.9026 43.5C28.9026 35.496 35.3768 29 43.3539 29C51.3311 29 57.8053 35.496 57.8053 43.5Z" fill="#1ABCFE"/>
</g>
<defs>
<clipPath id="clip0_65_160">
<rect width="57.8054" height="87" fill="white"/>
</clipPath>
</defs>
</svg>
