<svg width="99" height="99" viewBox="0 0 99 99" fill="none" xmlns="http://www.w3.org/2000/svg">
<g id="vscode-icons:file-type-firebasehosting">
<path id="Vector" d="M62.3701 90.3374C58.7504 91.7915 54.8214 92.6577 50.6757 92.8124C45.0761 92.998 39.7857 91.8534 35.0214 89.6568C40.7139 87.4293 45.8804 84.1499 50.2736 80.0662C53.1437 84.649 57.3569 88.2356 62.3392 90.3374H62.3701Z" fill="#FF9100"/>
<path id="Vector_2" d="M50.3043 80.0663C60.359 70.785 66.4536 57.3272 65.9277 42.57C65.9277 42.106 65.8968 41.611 65.8658 41.1469C70.3285 40.0083 75.0119 40.0616 79.4474 41.3016C82.139 46.0041 83.7477 51.3872 83.9643 57.1725C84.4902 72.0844 75.4565 85.1091 62.3699 90.3685C57.3736 88.2896 53.1541 84.6976 50.3043 80.0972V80.0663Z" fill="#FFC400"/>
<path id="Vector_3" d="M50.3044 80.0663C47.8927 76.2047 46.5378 71.7772 46.3754 67.2272C45.9422 54.7903 54.2954 44.1169 65.866 41.116C65.866 41.58 65.9279 42.075 65.9279 42.5391C66.1867 49.5467 64.9241 56.5271 62.227 63.0001C59.53 69.473 55.4625 75.2848 50.3044 80.0353V80.0663Z" fill="#FF9100"/>
<path id="Vector_4" d="M47.6747 6.1875C54.2644 11.4469 59.4619 18.4078 62.6175 26.4206C64.4621 31.1191 65.5583 36.0778 65.866 41.1159C60.1297 42.5987 55.0713 45.9949 51.5272 50.7428C47.9831 55.4907 46.1657 61.3061 46.3753 67.2272C46.5187 71.7803 47.8751 76.2126 50.3044 80.0662C45.8585 84.1805 40.6866 87.4327 35.0522 89.6569C23.6053 84.3666 15.4997 73.0125 15.0357 59.5547C14.7263 50.8303 18.0675 43.065 22.801 36.5062C27.8128 29.5762 47.6747 6.21844 47.6747 6.21844V6.1875Z" fill="#DD2C00"/>
<path id="Vector_5" d="M27.8438 92.8125C15.8833 92.8125 6.1875 83.1167 6.1875 71.1562C6.1875 59.1958 15.8833 49.5 27.8438 49.5C39.8042 49.5 49.5 59.1958 49.5 71.1562C49.5 83.1167 39.8042 92.8125 27.8438 92.8125Z" fill="white"/>
<path id="Vector_6" d="M27.8438 60.3281C33.8147 60.3281 38.6719 65.1853 38.6719 71.1562C38.6719 77.1272 33.8147 81.9844 27.8438 81.9844C21.8728 81.9844 17.0156 77.1272 17.0156 71.1562C17.0156 65.1853 21.8728 60.3281 27.8438 60.3281ZM28.9266 79.7569C30.1299 79.6062 31.2882 79.2046 32.3265 78.578C33.3647 77.9514 34.2599 77.1137 34.9539 76.1193C35.648 75.1248 36.1256 73.9957 36.3557 72.8051C36.5858 71.6144 36.5633 70.3886 36.2897 69.2072L31.0922 74.4047V75.4875C31.0922 76.6941 30.1022 77.6531 28.9266 77.6531V79.7569ZM21.4397 77.0034C21.5783 76.5627 21.8542 76.1778 22.2272 75.9051C22.6001 75.6323 23.0505 75.486 23.5125 75.4875H24.5953V72.2391C24.5953 71.6513 25.0903 71.1562 25.6781 71.1562H32.175V68.9906H30.0094C29.4216 68.9906 28.9266 68.4956 28.9266 67.9078V65.7422H26.7609C25.5853 65.7422 24.5953 64.7522 24.5953 63.5766V63.1434C23.2994 63.665 22.149 64.4927 21.2426 65.5558C20.3363 66.6188 19.7009 67.8856 19.3907 69.2477C19.0806 70.6098 19.105 72.0268 19.4618 73.3774C19.8186 74.7281 20.4973 75.9722 21.4397 77.0034Z" fill="#5E5E5E"/>
</g>
</svg>
