<svg width="74" height="74" viewBox="0 0 74 74" fill="none" xmlns="http://www.w3.org/2000/svg">
<g id="file-icons:flask" clip-path="url(#clip0_403_23)">
<path id="Vector" d="M22.1134 62.8032C14.3547 58.2567 7.72823 47.2806 4.30342 37.6531C2.92777 33.4767 2.4566 28.9991 0.683204 24.984C-1.17185 22.068 1.00117 18.8801 4.19531 17.9532C5.6175 17.6802 8.11818 16.3388 5.09965 17.2976C2.39359 19.283 2.1317 15.4953 4.90655 15.2554C6.80034 15.0039 7.49756 13.4535 6.84992 12.0579C4.81709 10.7322 11.7793 9.27523 8.27615 7.29717C4.62674 3.36014 13.3807 2.60208 11.221 7.07359C10.704 10.512 17.3378 6.44343 15.7987 10.4138C17.3631 12.3206 21.657 10.8479 21.5505 13.523C23.8295 13.6797 24.6117 15.597 26.751 15.7444C28.9681 16.7456 32.9877 17.5346 33.7421 20.0333C31.5424 21.7749 26.4486 16.4359 26.204 21.2566C27.1321 38.2613 28.0116 44.1243 36.2229 53.0325C41.7538 59.2907 49.3538 62.2419 55.7698 63.2925C57.1519 62.2354 59.5918 58.3054 61.7477 59.9625C61.8501 61.8246 57.4687 63.855 61.5417 63.6493C63.9333 62.9278 65.5922 65.4989 67.5616 63.1796C69.3762 65.3291 75.1032 61.8066 73.8123 66.1997C72.0666 67.3259 69.5204 66.6453 67.7719 68.1948C64.8888 66.7549 62.5933 69.4833 59.4016 69.1382C47.0972 71.2917 31.063 69.3492 22.1134 62.8032ZM36.5754 68.125C41.9395 68.8711 47.4791 70.0187 52.8625 68.972C50.4259 67.8717 47.9071 69.4005 45.4798 68.1852C42.5686 68.8117 39.4446 68.0256 36.485 67.6387C33.1195 66.1395 29.4874 65.1087 26.3358 63.1628C22.3976 61.7243 28.3725 65.0075 29.436 65.2734C31.8979 66.6708 26.7289 64.557 26 63.9761C23.9381 62.8194 23.6232 63.0891 25.7438 64.2637C29.0504 66.3122 33.1944 67.701 36.5754 68.125ZM21.2221 60.8119C24.2116 61.9193 21.2088 58.7095 19.8389 58.8961C19.2319 57.8431 17.5201 57.1779 18.7276 56.6123C16.5553 57.3664 16.4521 53.7445 15.4309 54.2619C13.1328 53.5363 14.5365 50.9657 11.7991 49.387C11.5492 47.7237 9.07931 46.281 8.29162 43.7719C7.94359 42.4874 5.50115 38.7983 7.00153 42.2315C8.27919 45.5364 10.5269 48.3667 12.3975 51.1939C13.85 53.8855 15.565 56.6987 18.2102 58.3778C19.102 59.2332 19.9628 60.5438 21.2221 60.8119ZM25.0721 55.6026C23.4365 54.7306 19.8755 54.2794 22.3883 56.274C24.0014 56.9259 28.1126 57.2421 25.0723 55.6026M27.814 59.069C31.327 60.0628 24.8598 56.8474 26.9471 58.7033L27.814 59.069ZM27.8437 57.2074C30.3958 57.5365 24.8071 55.4716 27.2837 57.0227L27.8437 57.2074ZM36.7135 62.6613C39.0963 61.2368 38.3108 65.9971 40.7561 63.0634C43.168 61.3023 38.6731 65.2408 41.6458 63.3775C43.7956 61.9395 46.9711 64.0591 48.977 64.7505C50.4197 64.6797 51.8221 65.9981 53.301 65.1961C56.1479 64.4292 47.7339 64.0586 49.9396 62.6983C47.3346 63.4564 45.41 61.7944 44.1281 60.1259C41.2062 59.4511 37.8277 57.9573 36.3694 55.3714C35.7748 54.4005 37.2284 55.5082 35.8563 53.9212C34.0955 52.3551 33.2163 50.5773 32.0343 48.6737C30.6223 47.9204 30.4578 45.7033 30.315 48.5994C30.3263 46.7717 28.6103 45.5414 28.1914 46.0528C28.1839 44.2924 30.0278 45.1749 28.737 43.8724C28.4592 42.048 27.5443 40.1468 27.2694 38.087C26.8422 37.094 27.2093 34.9674 25.8113 37.2151C25.3019 39.5908 25.6422 34.2959 26.4342 36.0418C27.4738 34.2602 26.061 34.4698 26.0032 34.7172C26.6803 33.2138 26.4319 31.0815 25.8264 31.8949C26.1873 30.3018 26.3966 26.0313 25.2865 26.7879C25.9594 25.1219 26.5627 19.1642 23.6414 21.4357C22.4574 21.4523 20.4072 21.8655 19.4382 22.3474C22.4768 24.0225 19.1325 22.9524 17.8956 22.6861C17.7343 24.2359 16.5092 23.5656 14.9786 23.5808C17.4232 23.8833 13.7881 26.0812 12.3858 25.2274C10.5642 26.0979 13.9575 28.271 12.4222 28.9428C12.6109 29.9556 9.63186 28.5771 9.86571 30.9162C8.09751 30.1723 9.62232 33.6909 10.507 32.501C13.5144 33.3148 12.6241 35.1705 12.7007 36.9333C12.2107 37.9605 10.2814 34.5189 12.271 34.6783C10.7014 32.1285 10.5347 33.7567 9.23035 34.9412C8.92698 35.0272 12.5575 36.6265 10.2791 37.4175C12.2836 37.7268 12.3405 39.4808 12.7487 40.5908C13.9533 41.8456 13.7069 39.2052 15.1483 40.7131C14.2362 39.3697 10.3165 36.9278 13.4723 37.711C13.4554 36.3588 12.9014 35.2685 13.8684 35.2949C14.8259 33.561 12.8656 39.5701 15.0239 37.3665C15.6212 37.1056 15.7692 35.6304 16.8431 37.5058C18.4029 39.0401 17.4065 40.152 15.2063 38.747C15.6 40.0825 18.1495 40.5596 17.6705 42.6479C18.1784 44.4843 18.8889 43.8079 19.5084 43.7017C19.9943 45.4862 20.2702 44.174 20.2932 43.3249C22.5183 43.8011 21.9971 45.1164 22.6933 46.0352C24.2263 46.7272 20.4989 41.3445 23.1309 44.4167C25.9001 46.9168 24.1846 47.7786 21.6843 47.56C23.7638 47.7302 23.8075 49.5825 25.7319 49.6073C27.4044 50.4697 28.7227 53.7053 25.6302 52.3408C23.8864 51.2588 20.78 50.2141 23.8802 52.0536C24.614 52.5181 29.0175 54.1729 31.7791 55.8371C33.3081 56.8824 34.6093 58.864 35.3584 59.1839C33.6973 59.9774 30.3527 58.5504 32.8363 58.1131C31.2871 57.8309 29.5986 57.0363 31.0286 58.9776C32.2582 60.102 35.4986 59.9196 36.0737 60.0388C35.5862 61.1131 34.7495 61.1985 36.0938 61.2818C34.5941 62.081 36.5746 62.2047 36.7135 62.6613ZM33.4851 52.8154C32.4989 51.2603 32.7347 53.0475 33.647 54.0016C35.1053 55.736 33.9909 53.0185 33.4851 52.8154ZM28.0404 44.7711C28.0404 44.7711 28.2835 43.1307 27.5335 42.9493C26.7834 42.7677 27.1967 43.0698 27.7968 44.3684C27.9399 44.6782 28.0284 44.7855 28.0272 44.7785M19.8306 38.5532C19.0855 36.8846 20.1851 37.7907 20.025 37.079C19.681 36.3636 16.3383 32.5644 17.8609 35.4326C19.2388 38.8541 16.994 35.0031 16.7598 33.8373C16.501 34.5532 17.305 36.8979 17.7911 37.697C19.0284 39.6027 18.472 36.6535 19.8306 38.5532ZM12.985 31.9736C11.0503 30.3462 13.5815 32.7757 12.7958 32.7451C10.7569 31.256 11.5904 32.3109 12.742 33.4553C13.9896 35.3092 15.0194 32.3444 12.985 31.9736ZM13.9783 32.2534C17.6382 33.2589 10.0834 28.7216 13.4313 31.701L13.9783 32.2534ZM24.1065 36.5792C23.0561 36.6005 24.5421 34.2917 23.1338 34.7473C22.6397 31.1589 21.5749 36.4056 23.0237 37.2743C23.471 38.5596 23.9409 38.0359 24.1065 36.5791M15.4657 31.4744C20.3389 33.7236 11.9373 27.7543 14.088 30.7218C14.3437 31.2937 14.9564 31.3412 15.4657 31.4744ZM16.0242 30.3086C19.7151 31.8342 15.6958 29.3158 14.4176 29.5892C14.7399 30.0608 15.614 29.8546 16.0242 30.3086ZM16.5185 28.9276C17.7166 28.6882 16.3595 28.3041 15.6435 27.7352C13.9864 25.2459 15.8899 27.9361 15.3692 28.7002C16.0587 29.3781 18.403 30.59 16.5185 28.9276ZM24.9947 25.0656C24.5054 27.6514 24.0064 26.573 24.7078 24.645C24.54 22.1706 23.0363 26.1602 23.7008 27.3314C24.7995 29.0815 25.8983 23.0304 24.9947 25.0656ZM26.4557 55.853C28.3588 56.3414 28.3491 55.557 26.6292 55.324C25.7039 54.4634 22.7848 53.5505 25.3976 55.2171C25.5706 55.6555 26.1175 55.6453 26.4557 55.853ZM19.6987 51.3653C20.7472 52.1471 23.6478 53.581 21.1923 51.6628C22.0202 50.7011 19.6078 50.189 20.4081 49.5457C18.3725 48.3001 18.8024 48.4108 20.2283 48.4501C17.7821 47.3566 20.5815 47.4384 20.4497 46.8781C19.5064 46.6918 15.7645 45.2148 17.9658 46.9995C15.7279 45.8584 17.4325 47.4244 16.7561 47.2589C14.4677 46.635 18.794 49.0018 16.3927 48.4143C17.7055 49.4546 19.9264 51.0792 16.9477 49.5152C16.5552 50.0802 19.0793 50.9365 19.6987 51.3652M43.4763 65.3094C44.4801 64.3367 43.5174 66.8588 45.1396 65.0712C45.1571 63.7917 45.0896 63.0359 43.2754 64.5902C42.7753 64.8677 42.552 66.047 43.4763 65.3094ZM27.0388 54.7557C28.1553 55.7477 32.167 55.4836 28.3949 54.8779C27.8361 54.0519 24.8474 54.2505 27.0388 54.7557ZM8.64774 42.4024C7.02567 40.0881 7.63949 39.0478 6.07523 37.1583C5.77923 35.7133 3.39201 32.4343 4.8405 35.9081C6.1673 37.9398 6.56172 41.0855 8.64774 42.4024ZM56.7047 65.2428C58.2828 64.9229 61.8789 66.0461 62.4601 64.8244C60.5437 64.778 55.83 63.4724 55.6068 65.136L56.7047 65.2428ZM2.96795 25.3657C2.68034 23.7171 2.33259 20.8231 5.0836 21.801C1.4115 22.53 7.62504 26.3652 6.84038 23.3373C8.38441 23.4128 9.86094 22.4247 9.0507 23.9243C12.0928 23.5883 14.2019 20.9502 17.1405 21.3199C19.4296 21.0169 21.9323 20.7873 24.3989 19.8659C26.4271 19.7198 28.3794 17.5361 27.2678 16.2419C24.5021 16.0079 21.6068 16.3539 18.55 16.9617C15.1625 17.6658 12.0856 19.0038 8.66769 19.578C5.33624 20.0255 9.33788 20.811 8.38354 20.986C6.64512 21.5891 10.4567 21.996 8.15807 22.6318C6.73877 22.362 5.26109 21.8742 5.8674 20.3783C2.67615 20.7923 -0.127906 22.1168 2.3933 25.3643L2.96795 25.3657ZM11.4969 21.8156C14.2791 23.7177 11.0188 18.693 10.2705 21.4495C10.6181 21.364 11.1646 21.5669 11.4969 21.8156ZM12.2889 20.541C14.9263 20.8064 11.8848 18.8665 11.7874 20.0844L12.2889 20.541ZM16.7091 18.9257C20.6021 18.1847 15.2835 17.6888 14.143 19.0594C14.8656 19.3889 15.6656 18.1402 16.7091 18.9257ZM23.3865 17.5995C25.8475 17.2216 23.7734 16.0919 23.0533 17.9786C23.3143 18.5735 23.4399 17.8003 23.3865 17.5995ZM10.1481 27.6531C11.5391 27.5577 12.3243 26.1188 9.879 26.2014C6.08925 25.8092 13.2227 27.4992 9.39295 27.0159C8.87827 27.3567 10.1182 27.7473 10.1481 27.6531ZM8.20027 16.6658C10.6827 15.8213 13.8168 15.104 15.2139 17.1408C14.1629 15.658 14.7684 14.2325 15.895 16.3317C17.4883 18.4557 18.0599 15.7861 17.2495 14.6532C18.0206 15.8726 20.8827 18.5278 18.0401 14.746C19.9238 12.4802 14.2687 15.0427 12.9834 15.0169C12.3648 15.2944 6.59843 16.4873 8.20027 16.6658ZM9.65513 13.8797C11.071 12.811 14.5518 14.5154 12.3181 12.8177C12.0999 12.6247 7.4266 14.105 9.65513 13.8797ZM14.8168 14.0927C16.4737 14.1351 14.1019 11.8668 16.0765 12.8946C15.7522 11.8352 13.7776 11.6369 12.8123 11.2137C12.2662 12.1822 13.9237 14.1058 14.8168 14.0927ZM8.7307 6.83005C6.85079 4.37548 12.2667 7.2424 10.3564 4.67263C8.74863 3.39237 7.20373 6.11361 8.7307 6.83005ZM32.8595 19.8263C33.7219 18.2977 29.2992 17.7657 32.2785 19.2846C32.5528 19.3762 32.4908 19.9321 32.8595 19.8263Z" fill="black"/>
</g>
<defs>
<clipPath id="clip0_403_23">
<rect width="74" height="74" fill="white"/>
</clipPath>
</defs>
</svg>
