<svg width="35" height="35" viewBox="0 0 35 35" fill="none" xmlns="http://www.w3.org/2000/svg">
<g id="mdi:github">
<rect width="35" height="35" fill="black"/>
<path id="Vector" d="M17.5001 2.9165C15.585 2.9165 13.6886 3.29371 11.9193 4.02659C10.1499 4.75948 8.54229 5.83368 7.18811 7.18786C4.4532 9.92277 2.91675 13.6321 2.91675 17.4998C2.91675 23.9457 7.10216 29.4144 12.8917 31.354C13.6209 31.4707 13.8542 31.0186 13.8542 30.6248V28.1603C9.81466 29.0353 8.95425 26.2061 8.95425 26.2061C8.28341 24.5144 7.3355 24.0623 7.3355 24.0623C6.00841 23.1582 7.43758 23.1873 7.43758 23.1873C8.89591 23.2894 9.66883 24.6894 9.66883 24.6894C10.9376 26.9061 13.0813 26.2498 13.9126 25.8998C14.0438 24.9519 14.423 24.3103 14.8313 23.9457C11.5938 23.5811 8.19591 22.3269 8.19591 16.7707C8.19591 15.1519 8.75008 13.854 9.698 12.8186C9.55216 12.454 9.04175 10.9373 9.84383 8.96859C9.84383 8.96859 11.0688 8.57484 13.8542 10.4561C15.0063 10.1353 16.2605 9.97484 17.5001 9.97484C18.7397 9.97484 19.9938 10.1353 21.1459 10.4561C23.9313 8.57484 25.1563 8.96859 25.1563 8.96859C25.9584 10.9373 25.448 12.454 25.3022 12.8186C26.2501 13.854 26.8042 15.1519 26.8042 16.7707C26.8042 22.3415 23.3917 23.5665 20.1397 23.9311C20.6647 24.3832 21.1459 25.2728 21.1459 26.629V30.6248C21.1459 31.0186 21.3792 31.4853 22.123 31.354C27.9126 29.3998 32.0834 23.9457 32.0834 17.4998C32.0834 15.5847 31.7062 13.6884 30.9733 11.919C30.2404 10.1497 29.1662 8.54205 27.8121 7.18786C26.4579 5.83368 24.8502 4.75948 23.0809 4.02659C21.3116 3.29371 19.4152 2.9165 17.5001 2.9165Z" fill="white"/>
</g>
</svg>
