<svg width="152" height="152" viewBox="0 0 152 152" fill="none" xmlns="http://www.w3.org/2000/svg">
<g id="Group">
<path id="Vector" d="M76 151C85.8509 151.012 95.6071 149.078 104.708 145.308C113.809 141.538 122.076 136.007 129.032 129.032C136.007 122.076 141.538 113.809 145.308 104.708C149.078 95.6071 151.012 85.8509 151 76C151.012 66.1491 149.078 56.3929 145.308 47.2919C141.538 38.1908 136.007 29.9244 129.032 22.9675C122.076 15.9931 113.809 10.4621 104.708 6.69223C95.6071 2.92235 85.8509 0.987909 76 1.00006C66.1491 0.987909 56.3929 2.92235 47.2919 6.69223C38.1908 10.4621 29.9244 15.9931 22.9675 22.9675C15.9931 29.9244 10.4621 38.1908 6.69223 47.2919C2.92235 56.3929 0.987909 66.1491 1.00006 76C0.987909 85.8509 2.92235 95.6071 6.69223 104.708C10.4621 113.809 15.9931 122.076 22.9675 129.032C29.9244 136.007 38.1908 141.538 47.2919 145.308C56.3929 149.078 66.1491 151.012 76 151Z" stroke="black" stroke-width="2" stroke-linejoin="round"/>
<path id="Vector_2" fill-rule="evenodd" clip-rule="evenodd" d="M76 124.75C78.4864 124.75 80.871 123.762 82.6291 122.004C84.3873 120.246 85.375 117.861 85.375 115.375C85.375 112.889 84.3873 110.504 82.6291 108.746C80.871 106.988 78.4864 106 76 106C73.5136 106 71.129 106.988 69.3709 108.746C67.6127 110.504 66.625 112.889 66.625 115.375C66.625 117.861 67.6127 120.246 69.3709 122.004C71.129 123.762 73.5136 124.75 76 124.75Z" fill="black"/>
<path id="Vector_3" d="M76 31.0002V91.0002" stroke="black" stroke-width="2" stroke-linecap="round" stroke-linejoin="round"/>
</g>
</svg>
