<svg width="89" height="89" viewBox="0 0 89 89" fill="none" xmlns="http://www.w3.org/2000/svg">
<g id="logos:python" clip-path="url(#clip0_65_153)">
<path id="Vector" d="M44.877 0.0251465C67.4162 0.0251465 66.0089 9.83783 66.0089 9.83783L65.9839 20.0041H44.4751V23.0563H74.5268C74.5268 23.0563 88.9497 21.4141 88.9497 44.2452C88.9497 67.077 76.3611 66.2673 76.3611 66.2673H68.8482V55.6725C68.8482 55.6725 69.2532 43.0345 56.4605 43.0345H35.1277C35.1277 43.0345 23.1422 43.2289 23.1422 31.4055V11.8562C23.1422 11.8562 21.3219 0.0251465 44.877 0.0251465ZM56.7369 6.86174C56.2286 6.86128 55.7253 6.96145 55.2556 7.1565C54.7859 7.35156 54.3592 7.63768 53.9998 7.99849C53.6404 8.3593 53.3554 8.78771 53.1611 9.25922C52.9668 9.73073 52.867 10.2361 52.8675 10.7463C52.867 11.2566 52.9668 11.7619 53.1611 12.2334C53.3554 12.7049 53.6404 13.1334 53.9998 13.4942C54.3592 13.855 54.7859 14.1411 55.2556 14.3362C55.7253 14.5312 56.2286 14.6314 56.7369 14.6309C57.2452 14.6314 57.7486 14.5312 58.2182 14.3362C58.6879 14.1411 59.1146 13.855 59.474 13.4942C59.8334 13.1334 60.1184 12.7049 60.3127 12.2334C60.507 11.7619 60.6068 11.2566 60.6063 10.7463C60.6068 10.2361 60.507 9.73073 60.3127 9.25922C60.1184 8.78771 59.8334 8.3593 59.474 7.99849C59.1146 7.63768 58.6879 7.35156 58.2182 7.1565C57.7486 6.96145 57.2452 6.86128 56.7369 6.86174Z" fill="url(#paint0_linear_65_153)"/>
<path id="Vector_2" d="M44.2369 88.6949C21.6977 88.6949 23.105 78.8823 23.105 78.8823L23.13 68.7164H44.6392V65.6642H14.5874C14.5874 65.6642 0.164536 67.3063 0.164536 44.4745C0.164536 21.643 12.7532 22.4528 12.7532 22.4528H20.266V33.0473C20.266 33.0473 19.861 45.6853 32.6537 45.6853H53.9866C53.9866 45.6853 65.972 45.4909 65.972 57.3146V76.8642C65.972 76.8642 67.792 88.6949 44.2373 88.6949M32.3773 81.859C32.8856 81.8595 33.389 81.7593 33.8586 81.5643C34.3283 81.3692 34.755 81.0831 35.1144 80.7223C35.4738 80.3615 35.7588 79.9331 35.9531 79.4616C36.1474 78.9901 36.2472 78.4847 36.2467 77.9745C36.2472 77.4642 36.1475 76.9588 35.9532 76.4872C35.7589 76.0157 35.474 75.5872 35.1145 75.2264C34.7551 74.8655 34.3284 74.5794 33.8587 74.3843C33.389 74.1892 32.8856 74.0891 32.3773 74.0895C31.869 74.0891 31.3657 74.1892 30.896 74.3843C30.4263 74.5793 29.9996 74.8655 29.6402 75.2263C29.2808 75.5871 28.9958 76.0155 28.8015 76.487C28.6072 76.9585 28.5074 77.4638 28.5079 77.9741C28.5074 78.4844 28.6072 78.9897 28.8015 79.4612C28.9958 79.9327 29.2808 80.3611 29.6402 80.722C29.9996 81.0828 30.4263 81.3689 30.896 81.5639C31.3657 81.759 31.869 81.8595 32.3773 81.859Z" fill="url(#paint1_linear_65_153)"/>
</g>
<defs>
<linearGradient id="paint0_linear_65_153" x1="-764.273" y1="797.557" x2="-5181.24" y2="5153.38" gradientUnits="userSpaceOnUse">
<stop stop-color="#387EB8"/>
<stop offset="1" stop-color="#366994"/>
</linearGradient>
<linearGradient id="paint1_linear_65_153" x1="-1193.38" y1="1385.72" x2="-5935.85" y2="5851.41" gradientUnits="userSpaceOnUse">
<stop stop-color="#FFE052"/>
<stop offset="1" stop-color="#FFC331"/>
</linearGradient>
<clipPath id="clip0_65_153">
<rect width="89" height="89" fill="white" transform="matrix(-1 0 0 1 89 0)"/>
</clipPath>
</defs>
</svg>
