<svg width="99" height="99" viewBox="0 0 99 99" fill="none" xmlns="http://www.w3.org/2000/svg">
<g id="vscode-icons:file-type-reactjs">
<path id="Vector" d="M49.5 57.1541C45.2284 57.1541 41.7656 53.6913 41.7656 49.4197C41.7656 45.1481 45.2284 41.6853 49.5 41.6853C53.7716 41.6853 57.2344 45.1481 57.2344 49.4197C57.2344 53.6913 53.7716 57.1541 49.5 57.1541Z" fill="#00D8FF"/>
<path id="Vector_2" d="M49.5 67.1529C58.7963 67.3769 68.0692 66.1239 76.9725 63.4404C81.0853 62.1366 84.9212 60.0828 88.2863 57.3828C89.5709 56.4609 90.6406 55.2717 91.4219 53.8971C92.2032 52.5224 92.6776 50.9949 92.8125 49.4195C92.8125 44.3055 87.1943 39.2936 77.7831 36.0143C68.6413 33.1109 59.0907 31.7026 49.5 31.8439C40.0372 31.7131 30.6144 33.0959 21.5882 35.94C17.6279 37.2042 13.9223 39.1586 10.6425 41.713C9.38168 42.5937 8.32934 43.7402 7.55962 45.0717C6.78989 46.4033 6.32153 47.8874 6.1875 49.4195C6.1875 54.7346 12.4678 60.1208 22.5844 63.4682C31.3152 66.065 40.3925 67.3077 49.5 67.1529ZM49.5 35.544C58.6755 35.4241 67.8118 36.7629 76.5672 39.5102C85.2297 42.5328 89.1124 46.6661 89.1124 49.4102C89.1124 52.2812 84.9389 56.795 75.7752 59.929C67.258 62.4845 58.3896 63.6738 49.5 63.4527C40.7867 63.6086 32.101 62.4296 23.7445 59.9568C14.2312 56.8043 9.9 52.2843 9.9 49.4195C10.0566 48.4366 10.4151 47.4967 10.9529 46.6592C11.4907 45.8216 12.1961 45.1045 13.0247 44.553C15.9585 42.2861 19.269 40.5539 22.804 39.436C31.4391 36.727 40.451 35.4132 49.5 35.544Z" fill="#00D8FF"/>
<path id="Vector_3" d="M66.4375 88.2135C67.8807 88.2465 69.3069 87.8963 70.5707 87.1988C75.001 84.6433 76.5355 77.274 74.6761 67.4823C72.6237 58.1123 69.0718 49.1353 64.1574 40.8977C59.5444 32.6353 53.6402 25.1635 46.6684 18.765C43.5949 15.9655 40.0506 13.7315 36.1992 12.166C34.8053 11.5149 33.2857 11.1775 31.7473 11.1775C30.2089 11.1775 28.6892 11.5149 27.2953 12.166C22.6888 14.8205 21.1635 22.9509 23.3137 33.3861C25.4268 42.2484 28.8866 50.7342 33.5726 58.5475C38.0229 66.7126 43.7412 74.1195 50.5139 80.4915C53.6981 83.4021 57.3934 85.6981 61.4132 87.2637C63.0221 87.8625 64.721 88.1837 66.4375 88.2135ZM60.9523 42.7354C65.6396 50.6236 69.0439 59.2064 71.0379 68.1629C72.7487 77.1812 71.1059 82.6045 68.7176 83.9844C66.2426 85.4168 60.2345 84.0586 52.9394 77.6855C46.4731 71.5817 41.015 64.4915 36.7684 56.6789C32.2796 49.2091 28.9607 41.0961 26.9272 32.6219C24.9039 22.7993 26.6519 16.785 29.133 15.3557C30.0631 14.9999 31.0568 14.8407 32.0514 14.8881C33.0461 14.9355 34.0201 15.1885 34.9122 15.631C38.3408 17.0463 41.4932 19.055 44.2244 21.5649C50.8848 27.6942 56.5245 34.8472 60.9306 42.754L60.9523 42.7354Z" fill="#00D8FF"/>
<path id="Vector_4" d="M31.9369 88.0359C36.1289 88.0359 41.4532 85.499 46.9972 80.7315C54.0904 74.2741 60.0943 66.7136 64.777 58.3421C69.6308 50.2184 73.1547 41.3711 75.2153 32.1349C76.1069 28.071 76.2724 23.8814 75.7042 19.7599C75.5706 18.2315 75.1042 16.7508 74.3378 15.4216C73.5714 14.0925 72.5236 12.9471 71.2677 12.0657C66.6673 9.40202 58.8618 12.14 50.8954 19.2123C44.2729 25.4684 38.6491 32.7032 34.2201 40.6644C29.3689 48.5982 25.808 57.2519 23.6704 66.3023C22.7388 70.515 22.5951 74.8639 23.2465 79.129C23.4009 80.702 23.894 82.223 24.6918 83.5875C25.4897 84.9519 26.5734 86.1275 27.8686 87.0335C29.1123 87.7211 30.516 88.067 31.9369 88.0359ZM61.575 56.4796C57.0824 64.4799 51.3473 71.7156 44.5841 77.9162C37.6263 83.9026 32.107 85.1896 29.7341 83.7943C27.2591 82.3557 25.4338 76.4838 27.3148 66.9829C29.375 58.3417 32.7905 50.0812 37.4345 42.5082C41.6611 34.8887 47.029 27.961 53.3518 21.9657C60.8511 15.308 66.9334 13.8199 69.4115 15.2554C70.1834 15.8834 70.817 16.6645 71.2722 17.5495C71.7274 18.4344 71.9945 19.404 72.0566 20.3972C72.5481 24.0729 72.3879 27.8064 71.5833 31.4264C69.6006 40.259 66.2209 48.7185 61.5719 56.4858L61.575 56.4796Z" fill="#00D8FF"/>
</g>
</svg>
