<svg width="88" height="88" viewBox="0 0 88 88" fill="none" xmlns="http://www.w3.org/2000/svg">
<g id="icon-park:robot">
<g id="Group">
<path id="Vector" d="M67.8333 31.1667H20.1667C18.1416 31.1667 16.5 32.8083 16.5 34.8334V75.1667C16.5 77.1917 18.1416 78.8334 20.1667 78.8334H67.8333C69.8584 78.8334 71.5 77.1917 71.5 75.1667V34.8334C71.5 32.8083 69.8584 31.1667 67.8333 31.1667Z" stroke="black" stroke-width="2" stroke-linecap="round" stroke-linejoin="round"/>
<path id="Vector_2" d="M60.5 16.5L51.3334 31.1667" stroke="black" stroke-width="2" stroke-linecap="round" stroke-linejoin="round"/>
<path id="Vector_3" d="M27.5 16.5L36.6667 31.1667" stroke="black" stroke-width="2" stroke-linecap="round" stroke-linejoin="round"/>
<path id="Vector_4" d="M62.3334 16.5C64.3585 16.5 66.0001 14.8584 66.0001 12.8334C66.0001 10.8083 64.3585 9.16669 62.3334 9.16669C60.3084 9.16669 58.6667 10.8083 58.6667 12.8334C58.6667 14.8584 60.3084 16.5 62.3334 16.5Z" stroke="black" stroke-width="2"/>
<path id="Vector_5" d="M25.6667 16.5C27.6917 16.5 29.3333 14.8584 29.3333 12.8334C29.3333 10.8083 27.6917 9.16669 25.6667 9.16669C23.6416 9.16669 22 10.8083 22 12.8334C22 14.8584 23.6416 16.5 25.6667 16.5Z" stroke="black" stroke-width="2"/>
<path id="Vector_6" d="M51.3334 44H36.6667C32.6166 44 29.3334 47.2832 29.3334 51.3333C29.3334 55.3834 32.6166 58.6667 36.6667 58.6667H51.3334C55.3835 58.6667 58.6667 55.3834 58.6667 51.3333C58.6667 47.2832 55.3835 44 51.3334 44Z" fill="#2F88FF" stroke="black" stroke-width="2"/>
<path id="Vector_7" d="M16.5 44H7.33337V62.3333H16.5" stroke="black" stroke-width="2" stroke-linecap="round" stroke-linejoin="round"/>
<path id="Vector_8" d="M71.5 44H80.6667V62.3333H71.5" stroke="black" stroke-width="2" stroke-linecap="round" stroke-linejoin="round"/>
</g>
</g>
</svg>
