<svg width="70" height="70" viewBox="0 0 70 70" fill="none" xmlns="http://www.w3.org/2000/svg">
<g id="devicon:svelte" clip-path="url(#clip0_403_16)">
<path id="Vector" d="M60.3915 9.26194C53.8963 -0.041498 41.065 -2.79884 31.79 3.11506L15.4975 13.5057C13.2928 14.889 11.4011 16.7171 9.94338 18.8733C8.48565 21.0295 7.494 23.4662 7.03184 26.0275C6.8258 27.177 6.72095 28.3494 6.71903 29.5253C6.72894 32.714 7.51003 35.853 8.99567 38.6745C7.60297 40.7924 6.65262 43.1698 6.20168 45.6641C5.73959 48.2717 5.80429 50.9744 6.39035 53.5457C6.97706 56.1338 8.07396 58.579 9.61692 60.7382C16.1127 70.0405 28.973 72.7984 38.2185 66.8851L54.4946 56.4939C56.6978 55.1088 58.5871 53.2783 60.041 51.1199C61.495 48.9615 62.4815 46.5229 62.9372 43.9606C63.1466 42.8083 63.2513 41.6394 63.25 40.4683C63.2459 37.2857 62.4745 34.151 61.0013 31.33C62.3938 29.2141 63.3447 26.8387 63.7969 24.3464C63.9987 23.1925 64.1015 22.0249 64.1043 20.8541C64.1055 16.7008 62.8077 12.6512 60.3926 9.27233L60.3915 9.26194Z" fill="#FF3E00"/>
<path id="Vector_2" d="M30.1979 61.6121C29.1277 61.888 28.0363 62.0273 26.9418 62.0278C24.8518 62.0274 22.7931 61.5204 20.942 60.5501C19.0909 59.5799 17.5026 58.1753 16.3133 56.4567C14.8611 54.4239 14.0809 51.9878 14.082 49.4896C14.083 48.7852 14.144 48.0828 14.2641 47.3934C14.362 46.8746 14.4937 46.3659 14.6579 45.872L14.9647 44.9379L15.7959 45.5701C17.7254 46.9864 19.8811 48.0652 22.1714 48.7606L22.7752 48.9427L22.7183 49.5464V49.8598C22.7171 50.6151 22.9519 51.352 23.3898 51.9674C23.7437 52.4913 24.2202 52.9208 24.7778 53.2187C25.3488 53.5199 25.9655 53.6758 26.5891 53.6764C26.9182 53.6777 27.2464 53.6357 27.568 53.5512C27.917 53.4598 28.2541 53.3123 28.5704 53.1126L44.8454 42.6706C45.3334 42.3607 45.735 41.9322 46.0127 41.4252C46.2904 40.9182 46.4351 40.3491 46.4335 39.771C46.4288 39.0156 46.1879 38.2805 45.7445 37.6688C45.3852 37.1518 44.9062 36.7292 44.3483 36.4373C43.777 36.1425 43.1615 35.9917 42.5398 35.9943C42.2106 35.9932 41.8824 36.0353 41.5609 36.1201C41.2133 36.2093 40.8779 36.3567 40.5645 36.5581L34.3596 40.523C33.3154 41.1809 32.2032 41.6693 31.0521 41.9755C28.4889 42.6429 25.7826 42.5069 23.2992 41.586C20.8158 40.665 18.6752 39.0034 17.167 36.8261C15.7161 34.7926 14.936 32.357 14.9357 29.8589C14.9368 29.1562 14.998 28.4551 15.1178 27.7628C15.3961 26.2233 15.9912 24.7585 16.8654 23.4611C17.7396 22.1638 18.8738 21.0622 20.1961 20.2263L36.4886 9.84111C37.511 9.1904 38.6262 8.69863 39.7961 8.3826C40.86 8.11019 41.9539 7.97239 43.0522 7.97244C45.1465 7.96801 47.2106 8.47158 49.0676 9.43997C50.9246 10.4084 52.519 11.8127 53.7141 13.5325C55.1561 15.5709 55.9264 18.0083 55.9174 20.5052C55.9163 21.2116 55.8551 21.916 55.7348 22.6074C55.6373 23.1259 55.506 23.6344 55.3421 24.1282L55.0348 25.0623L54.2035 24.4531C52.2757 23.034 50.1195 21.9549 47.828 21.2626L47.2243 21.075L47.2812 20.4707V20.1579C47.281 19.4009 47.0464 18.6625 46.6096 18.0442C46.2513 17.5272 45.7727 17.1049 45.2151 16.8138C44.6451 16.5189 44.0309 16.3676 43.4104 16.3692C43.0842 16.3762 42.7597 16.4259 42.4424 16.5174C42.0929 16.6052 41.7557 16.7529 41.4411 16.956L25.148 27.3411C24.7617 27.5823 24.4201 27.9154 24.144 28.32C23.8863 28.6978 23.706 29.1431 23.6173 29.6199C23.5772 29.818 23.5523 30.0201 23.543 30.2237C23.5426 30.9772 23.7774 31.7121 24.2145 32.3259C24.5727 32.8429 25.0511 33.2651 25.6085 33.5563C26.1787 33.8513 26.7931 34.0024 27.4138 34.0004C27.7429 34.0016 28.0711 33.9594 28.3927 33.8746C28.7423 33.7861 29.0797 33.6386 29.3951 33.4366L35.6114 29.4488C36.6552 28.7897 37.7676 28.3012 38.9189 27.9963C39.9891 27.7208 41.0805 27.5814 42.175 27.5806C44.2653 27.5803 46.3246 28.0864 48.1767 29.0557C50.0287 30.025 51.6183 31.4285 52.8095 33.1462C53.7385 34.448 54.3979 35.9224 54.7488 37.4827C55.0998 39.043 55.1353 40.6578 54.8532 42.232C54.5765 43.772 53.982 45.2374 53.1077 46.535C52.2334 47.8326 51.0983 48.9338 49.7749 49.7685L33.5109 60.1536C32.4655 60.8146 31.351 61.3051 30.1979 61.6121Z" fill="white"/>
</g>
<defs>
<clipPath id="clip0_403_16">
<rect width="70" height="70" fill="white"/>
</clipPath>
</defs>
</svg>
