<svg width="62" height="62" viewBox="0 0 62 62" fill="none" xmlns="http://www.w3.org/2000/svg">
<g id="devicon:tailwindcss" clip-path="url(#clip0_403_21)">
<path id="Vector" d="M31.002 12.4009C22.7351 12.4009 17.5702 16.5326 15.502 24.7994C18.601 20.6672 22.2188 19.1177 26.351 20.1509C28.7104 20.7389 30.3965 22.4497 32.2638 24.3456C35.3027 27.4296 38.8202 30.9999 46.502 30.9999C54.7683 30.9999 59.9337 26.8677 62.002 18.5989C58.902 22.7332 55.2855 24.2836 51.1524 23.2499C48.7935 22.6614 47.1094 20.9511 45.2397 19.0552C42.2026 15.9712 38.6861 12.4009 31.002 12.4009ZM15.502 30.9999C7.23561 30.9999 2.07023 35.1321 0.00195312 43.4009C3.10163 39.2666 6.71797 37.7163 10.851 38.7499C13.2104 39.3384 14.8965 41.0488 16.7637 42.9446C19.8027 46.0286 23.3202 49.5989 31.002 49.5989C39.2683 49.5989 44.4337 45.4672 46.502 37.2004C43.402 41.3328 39.7855 42.8823 35.6524 41.8489C33.2935 41.2609 31.6094 39.5501 29.7397 37.6543C26.7026 34.5702 23.1861 30.9999 15.502 30.9999Z" fill="#38BDF8"/>
</g>
<defs>
<clipPath id="clip0_403_21">
<rect width="62" height="62" fill="white"/>
</clipPath>
</defs>
</svg>
